<svg id="Layer_1" data-name="Layer 1" xmlns="http://www.w3.org/2000/svg" viewBox="0 0 285 174"><defs><style>.cls-1{fill:#e5006d;}.cls-2{fill:#fff;}</style></defs><title>Artboard 1</title><path class="cls-1" d="M267.23,38.84c-.26-2.22-.64-3.93-1-7a1.08,1.08,0,0,0-.25-.64c-.06-.22-.34-.3-1.14-.51-13.63-3.25-27.09-6.9-41.55-10.51l-13.58-3.53c-7.45-1.79-14.69-3.67-22-5.59C179.41,9.09,171.38,7,163.21,5L147.75,1,147.3.88c-.17,0-.4.07-.73.15l-9.49,2.13L122.65,6.39c-8.26,1.71-16.38,3.53-24.7,5.26C90.52,13.32,83.21,15,75.7,16.5L62,19.58C47.44,22.7,33.89,25.89,20.2,28.67a2,2,0,0,0-1.45.83,3.55,3.55,0,0,0-.4,1.43c-.29,2.2-.6,4.58-.71,6.8-4.16,39-9,81.31-16.14,131.77-.17,1.33,0,1.33,1.23,1.33.37.22,1,0,1.6,0,6.2,0,12.32.67,19.37.22a3.52,3.52,0,0,0,.89-.08c1.79,0,3.58.08,5.4.16,6.18.22,12.4,0,18.58.22h32.2c14.59.22,29,0,43.6.22,10,.22,19.81.22,29.61.22h8.8c6.18.19,12.35.08,18.41.16a3.57,3.57,0,0,0,.59,0h1l2,0a3.6,3.6,0,0,0,.59,0h15.78c6.63.22,13.14.22,19.77.45,5.91,0,11.71,0,17.64.22h10.76c3.91.08,7.72.1,11.46.12a4.59,4.59,0,0,0,1.28.14l1.64-.13c6.12,0,12.09.06,18.08.32.5,0,.73,0,.82-.16,1.28,0,1.26-.25,1.08-1.76C277.65,118.75,273.47,85.24,267.23,38.84Z"/><path class="cls-2" d="M42.92,85c0,2.25.2,4.39.39,6.54.39,5.17,9.67,20.31,22.07.78.2-.29.39-.29.68-.1,2.25,1.27,4.88,2.44,7.32,3.61.29.2.49.29.29.78a18.49,18.49,0,0,1-.88,2.05c-3.52,6-8.69,13.08-19.33,13.08-12.5,1.56-20.7-12.21-21-23.43,0-3.22-.2-6.44-.29-9.76-.78-15.52-.29-29.1,14-37C58.54,36.33,69.38,44,73.58,56.25c.29.88.1,1-.68,1.27l-7.62,3.32c-.39.1-.59.1-.68-.29-.2-.59-.39-1.07-.68-1.76C56,41,43,55,43,62.49c0,2-.1,6.05-.1,8-.1,2.34-.1,4.78,0,7.81Z"/><path class="cls-2" d="M109.19,110.14c-3.12-5.08-4.39-6.93-7.52-12.3A182.4,182.4,0,0,1,91.42,80.95c.1,4.3.29,12.3.59,16,.1,2.05-.1,3.81,0,5.86,0,2.83.29,5.76.29,8.2,0,.88,0,.88-.88.88-2.64.1-3.52-.1-6.15,0-1,.1-1.86,0-2.83.1-.39,0-.49-.1-.49-.49-.49-20.5.29-19.72-.68-36.32-.2-4.69-.59-24-.59-28.51-.1-1.66,0-3.52-.1-5.17,0-.68,0-.68.68-.68,5.57-.1,10.84-.29,16.11-.29,14.45,0,17.67,8.2,17.87,21.77,0,8.79-4.78,13.08-12.4,15.82-1.07.29-.88.29-.39,1.17,6.35,12.5,12.4,19.72,17.67,29.29.29.49.1.78-.88.88-2.54.49-1,.2-5,.88a29.11,29.11,0,0,1-3.61.59A1.72,1.72,0,0,1,109.19,110.14ZM92.69,70.6c8.79-.39,11.81-4.78,11.72-10.64-.1-6.93-3.71-9.86-12.69-10-.59.1-.78.39-.68,1.37,0,6.25.29,14.65.29,18.65C91.23,70.79,91.91,70.79,92.69,70.6Z"/><path class="cls-2" d="M139.75,111.71c-4,.29-7.32.39-10.55.49-.29,0-.39-.2-.39-.49,0-1.76-.1-2.73-.1-4-.39-25.19-.49-42-.39-66.2,0-.68,0-.78.68-.78,4,0,6.83.2,10-.1.88,0,1,.1,1.07,1,.1,9,.49,13.18.29,23.14,0,16,0,32.71.2,46.18C140.53,111.51,140.34,111.71,139.75,111.71Z"/><path class="cls-2" d="M181.29,43.16c.49.1.59.39.39.78-1.27,3.71-1.66,4.88-2.64,8.49-.1.2-.1.29-.39.2-3.81-1.56-18.84-6-18.84,6.25a9.61,9.61,0,0,0,2.64,6.44c5,5.37,14.65,6.83,19.82,12a13.6,13.6,0,0,1,2.93,4.59,31.55,31.55,0,0,1-.2,19.23,16.51,16.51,0,0,1-4.79,6.25,17.68,17.68,0,0,1-12.11,4.39,42.14,42.14,0,0,1-18.84-5.66c-.29-.2-.29-.39-.2-.78,1.17-4.39,1.86-5.27,3.22-10.06.2-.49.2-.49.88-.39,2.34.39,10.74,4.78,15,4.69,8.59-.29,8.2-10.25,5-13.47-2.25-2.93-6.64-4.59-9.47-6.64-3.42-2.15-7.42-4.59-10-7.71a33.27,33.27,0,0,1-2.25-2.93A14.68,14.68,0,0,1,149,63.57c-3.12-11.52,5.27-22.26,17-23C175,39.94,177.09,42.09,181.29,43.16Z"/><path class="cls-2" d="M205.84,111.71c-4,.29-7.32.39-10.54.49-.29,0-.39-.2-.39-.49,0-1.76-.1-2.73-.1-4-.39-25.19-.49-42-.39-66.2,0-.68,0-.78.68-.78,4,0,6.83.2,10-.1.88,0,1,.1,1.07,1,.1,9,.49,13.18.29,23.14,0,16,0,32.71.2,46.18C206.63,111.51,206.43,111.71,205.84,111.71Z"/><path class="cls-2" d="M247.39,43.16c.49.1.59.39.39.78-1.27,3.71-1.66,4.88-2.64,8.49-.1.2-.1.29-.39.2-3.81-1.56-18.84-6-18.84,6.25a9.61,9.61,0,0,0,2.64,6.44c5,5.37,14.65,6.83,19.82,12a13.6,13.6,0,0,1,2.93,4.59,31.55,31.55,0,0,1-.2,19.23,16.51,16.51,0,0,1-4.79,6.25,17.68,17.68,0,0,1-12.11,4.39,42.14,42.14,0,0,1-18.84-5.66c-.29-.2-.29-.39-.2-.78,1.17-4.39,1.86-5.27,3.22-10.06.2-.49.2-.49.88-.39,2.34.39,10.74,4.78,15,4.69,8.59-.29,8.2-10.25,5-13.47-2.25-2.93-6.64-4.59-9.47-6.64-3.42-2.15-7.42-4.59-10-7.71a33.27,33.27,0,0,1-2.25-2.93,14.68,14.68,0,0,1-2.54-5.27c-3.12-11.52,5.27-22.26,17-23C241.14,39.94,243.19,42.09,247.39,43.16Z"/><path class="cls-2" d="M24.8,146.18c0,1.26.11,2.47.22,3.68.22,2.91,5.44,11.43,12.42.44.11-.16.22-.16.38-.06,1.26.71,2.75,1.37,4.12,2,.16.11.27.16.16.44a10.3,10.3,0,0,1-.49,1.15c-2,3.35-4.89,7.36-10.88,7.36-7,.88-11.65-6.87-11.81-13.19,0-1.81-.11-3.63-.17-5.5-.44-8.74-.16-16.37,7.86-20.83,7-3,13.08,1.37,15.44,8.24.16.49.05.55-.38.71l-4.29,1.87c-.22.06-.33.06-.38-.16s-.22-.6-.38-1c-4.45-10-11.76-2.14-11.76,2.09,0,1.1-.06,3.41-.06,4.51-.05,1.32-.05,2.69,0,4.4Z"/><path class="cls-2" d="M47.23,160.25c-.33.05-.33,0-.38-.33,0-.16-.06-.27-.06-.38,0-1,.06-2,0-3-.11-1.7-.06-3.46-.16-5.16v-1.81c-.06-1.65-.06-3.35-.11-5-.06-1.37-.06-2.75-.11-4.18-.05-1.15,0-2.31-.05-3.41-.06-1.48-.06-2.91-.11-4.34-.06-1.26-.06-2.53-.06-3.79s-.05-2.8-.11-4.18c-.06-1-.06-2.09-.06-3.13,0-.33,0-.33.38-.38,2.91,0,2.75-.17,4.51-.17.38,0,.38,0,.44.38.11,1.54.22,3,.33,4.51.33,3.24.5,6.1.71,9,.11,1.59.22,3.13.33,4.73.38,4.78.22,8.35.6,13.79.06.55,6.76.17,7.69.11a16.91,16.91,0,0,1,1.7-.06c1.15-.05,2.25-.16,3.35-.16.17-.05.27.06.27.28.27,2.64.44,2.8.66,5.33v.27c.06.5.06.5-.44.5s-.82,0-1.26.05c-1.37,0-2.75.05-4.12.11l-6,.16c-.88,0-1.81.06-2.69.06-1,.05-2.09.11-3.35.11C48.72,160.25,47.95,160.25,47.23,160.25Z"/><path class="cls-2" d="M92.09,120.57c.71-.06.77.05.82.66.82,5.44,1.48,10.28,2.14,15.17.55,6.21,1,10.72,1.87,17.75.11,1.43.27,2.86.38,4.29.11.93.16,1.87.27,2.8.05.38.05.38-.33.38-2.8.11-3.24.16-5.93.16-.38.06-.44,0-.44-.33-.49-4.89-.71-9.73-1.15-14.51-.05-.33-.05-.33-.38-.33-2.09-.11-8.19-.05-9.78-.05-.22-.06-.33.05-.38.27-.44,3.79-.71,5.61-1,9.45-.17,2-.22,2.64-.49,4.84-.06.88-.06.82-.82.82-2.42.06-3,.06-5.28.06-.27,0-.27,0-.27-.27.11-.93.16-1.81.22-2.75.11-1.43.22-2.86.33-4.23.11-1.59.38-3.9.49-5.49,1.37-12.86,2.09-18.52,3.13-28.08.06-.38.06-.38.44-.38,1.54-.05,3.08-.05,4.62-.05,3.46-.06,6.54,0,9.67-.11C90.83,120.57,91.43,120.57,92.09,120.57Zm-3.3,20.5c0-.05-1.54-15.11-1.54-15.11s-5.28,0-5.39.11-2,15.17-1.87,15.17S88.79,141.12,88.79,141.07Z"/><path class="cls-2" d="M120.24,122.61c.27.05.33.22.22.44-.72,2.09-.93,2.75-1.48,4.78-.05.11-.05.17-.22.11-2.14-.88-10.61-3.35-10.61,3.52a5.4,5.4,0,0,0,1.48,3.63c2.8,3,8.24,3.85,11.15,6.76a7.64,7.64,0,0,1,1.65,2.58,17.76,17.76,0,0,1-.11,10.83,9.3,9.3,0,0,1-2.69,3.52,10,10,0,0,1-6.81,2.47A23.7,23.7,0,0,1,102.21,158c-.16-.11-.16-.22-.11-.44.66-2.47,1-3,1.81-5.66.11-.28.11-.28.49-.22,1.32.22,6,2.69,8.46,2.64,4.84-.17,4.62-5.77,2.8-7.58-1.26-1.65-3.74-2.58-5.33-3.74a22.83,22.83,0,0,1-5.61-4.34,18.67,18.67,0,0,1-1.26-1.65,8.25,8.25,0,0,1-1.43-3,10.33,10.33,0,0,1,9.56-13C116.72,120.79,117.88,122,120.24,122.61Z"/><path class="cls-2" d="M126.94,151.29c-.11-.38-.16-.82-.27-1.21s0-.33.33-.38l2-.33c1.65-.22,1.65-.16,3.3-.38.44-.05.44-.05.61.33.33,1.54,1.81,6,5,5.77,4.29-.22,2.69-5.77,2.14-7.64-1.59-2.86-5.33-4.4-8-6.37a14.15,14.15,0,0,1-4.56-11.7,8.72,8.72,0,0,1,8.46-8.19,10.16,10.16,0,0,1,6.92,1.7c2.25,1.7,3,4,3.79,6.43.27,1,.38,1.26-.61,1.43-2.64.44-2,.38-4.62.82-.33.05-.27-.06-.38-.28-.5-1.32-.5-2.25-1.26-3.19-4-4.89-8.3,3.85-4.78,6.26,5.61,5.22,11.65,6.81,12.47,14.73.22,4.29-1,8.52-4.34,10.71a8.55,8.55,0,0,1-7.42,1.15C129.58,159.2,128.15,156,126.94,151.29Z"/><path class="cls-2" d="M168.08,160.3c-1.76-2.86-2.47-3.9-4.23-6.92a102.53,102.53,0,0,1-5.77-9.51c.05,2.42.16,6.92.33,9,.05,1.15-.05,2.14,0,3.3,0,1.59.16,3.24.16,4.62,0,.49,0,.49-.49.49-1.48.06-2-.06-3.46,0-.55.06-1,0-1.59.06-.22,0-.27-.06-.27-.28-.27-11.54.16-11.1-.38-20.44-.11-2.64-.33-13.52-.33-16-.06-.93,0-2-.06-2.91,0-.38,0-.38.38-.38,3.13-.06,6.1-.16,9.07-.16,8.13,0,9.95,4.62,10.06,12.25,0,4.94-2.69,7.36-7,8.9-.6.16-.49.16-.22.66,3.57,7,7,11.1,9.95,16.48.16.28.05.44-.5.5-1.43.27-.55.11-2.8.5a16.37,16.37,0,0,1-2,.33A1,1,0,0,1,168.08,160.3ZM158.79,138c4.95-.22,6.65-2.69,6.59-6-.06-3.9-2.09-5.55-7.14-5.61-.33.06-.44.22-.38.77,0,3.52.16,8.24.16,10.5C158,138.16,158.35,138.16,158.79,138Z"/><path class="cls-2" d="M187.83,120.24c7.64-.77,11,2.14,14,8.46,2.42,5.77,1.37,11.37,1.43,18.13-1.26,7.53-5.22,13.35-12.75,14.4-.16,0-.27.06-.38.06a6.62,6.62,0,0,1-3.57-.49c-6.54-1.59-9.67-8.57-9.67-14.84,0-5.71-.44-11.65,1.21-17C179.76,122.77,182,121.67,187.83,120.24Zm-4,13.52a65.44,65.44,0,0,0-.22,8.46c.22,2.64.93,7.14.93,7.14,4.18,10.77,12.2,3.85,12.2-4.4a91,91,0,0,0-.71-12.31c0-3-2.91-6.87-6.32-6.65C186,126.18,183.82,130.74,183.82,133.76Z"/><path class="cls-2" d="M221.89,161.18c-4.67.38-7.86-.6-9.62-3-4.12-5.71-5.06-12.64-4.89-17.42s1-9.29,2.91-12.75c2.8-5.22,5.38-6.15,9.89-6.26a9.89,9.89,0,0,1,7.14,3,21,21,0,0,1,4.12,6.87,55,55,0,0,1,1.7,8,31.05,31.05,0,0,1-.33,7.2C231.95,152,228.6,160.63,221.89,161.18Zm-8.57-16c.5,10.28,8,14.4,11.81,7.86a31.56,31.56,0,0,0,1.7-18.35c-2-9.23-10.61-9.73-12.58-.5A62.71,62.71,0,0,0,213.32,145.19Z"/><path class="cls-2" d="M244.23,138.76c.16,9.78.11,16.76-.06,21.49v.6c-.05.33-.05.33-.38.33-2.25-.16-3.13.11-5.33,0-.38-.05-.38-.05-.44-.38-.22-2.31,0-4.4-.11-8.13-.06-5.77-.11-6.76,0-12.25a26.51,26.51,0,0,1,0-3.63c0-1.43.05-2.91.05-4.34.05-1.76-.05-4,0-5.77l.16-4c0-.38,0-.38.38-.44,2.64-.38,2.8-.05,5.06-.33a.85.85,0,0,1,.77.33c2.75,5.33,5.61,9.56,7.64,13.24,2.31-3.57,6-10.11,8.19-13.52a.48.48,0,0,1,.49-.27c2,0,2.91,0,4.45-.11.38-.06.44.06.44.38.05,1,.05,2,.05,3,.06,2.2-.05,3.41.06,5.66.11,1.1.05,2.2.11,3.3.05,5.44.33,10,.11,14.56.06,3.85.06,6.37.06,9.89,0,.77.05,1.59.05,2.36,0,.49-.05.49-.49.49-2.36-.06-1.92.06-4.29-.06h-1.37c-.27-.05-.27-.05-.27-.38.05-1.92,0-3.85,0-5.82v-7c0-2.47-.06-7.86,0-10.39,0-.22-.11-2.36-.11-2.69-1.37,2.47-5.06,9.56-6.65,11.6-.33.49-.55.93-.93.33-2.53-3.79-5.61-7.91-7.75-11.7C244.12,135.68,244.23,138.32,244.23,138.76Z"/></svg>